<?xml version="1.0" standalone="no"?>
<!DOCTYPE svg PUBLIC "-//W3C//DTD SVG 20010904//EN"
 "http://www.w3.org/TR/2001/REC-SVG-20010904/DTD/svg10.dtd">
<svg version="1.0" xmlns="http://www.w3.org/2000/svg"
 width="512.000000pt" height="512.000000pt" viewBox="0 0 512.000000 512.000000"
 preserveAspectRatio="xMidYMid meet">

<g transform="translate(0.000000,512.000000) scale(0.100000,-0.100000)"
fill="#000000" stroke="none">
<path d="M2966 5111 c-3 -4 -17 -41 -32 -82 -37 -104 -59 -144 -107 -196 -59
-64 -113 -98 -219 -139 -51 -19 -97 -39 -102 -44 -10 -10 3 -16 132 -65 143
-54 222 -136 287 -301 23 -58 45 -106 50 -107 11 -3 20 15 55 110 61 163 144
245 312 309 56 22 103 44 105 50 2 6 -31 24 -74 39 -118 41 -167 70 -228 130
-59 60 -87 108 -130 228 -26 73 -37 88 -49 68z"/>
<path d="M1059 4853 c-6 -15 -35 -95 -66 -178 -90 -242 -144 -334 -265 -451
-116 -113 -202 -160 -471 -259 -87 -32 -161 -64 -164 -72 -9 -24 15 -37 182
-98 258 -93 372 -160 487 -284 106 -114 145 -187 243 -451 56 -150 64 -165 85
-165 22 0 29 13 67 115 79 213 105 275 145 343 80 138 201 255 341 332 37 20
149 68 250 105 178 67 214 87 191 110 -7 7 -83 38 -170 70 -211 77 -243 92
-326 145 -122 80 -224 188 -297 318 -19 32 -66 145 -105 250 -61 164 -75 192
-94 195 -16 3 -25 -4 -33 -25z"/>
<path d="M4330 3867 c-5 -12 -29 -75 -53 -139 -56 -148 -96 -215 -177 -291
-74 -70 -158 -117 -310 -172 -58 -21 -109 -42 -115 -47 -16 -14 16 -33 125
-73 185 -67 268 -120 351 -220 51 -62 89 -136 139 -272 41 -112 54 -133 70
-117 5 5 28 59 50 119 74 196 129 282 229 359 70 54 129 84 261 131 109 39
141 58 125 73 -6 5 -57 26 -115 47 -157 56 -232 98 -307 169 -85 80 -130 155
-189 317 -48 130 -67 157 -84 116z"/>
<path d="M2432 2877 c-6 -7 -35 -80 -65 -162 -100 -273 -150 -361 -277 -484
-106 -104 -201 -158 -425 -242 -105 -39 -197 -77 -205 -85 -24 -23 2 -38 185
-107 252 -95 338 -143 447 -250 120 -118 174 -212 267 -462 32 -88 62 -168 66
-178 5 -11 16 -17 28 -15 18 2 33 34 88 183 102 278 148 356 287 486 104 98
198 149 427 235 154 58 191 75 193 91 2 12 -4 23 -15 28 -10 4 -90 34 -178 66
-250 93 -344 147 -462 267 -106 108 -160 204 -248 442 -72 196 -86 220 -113
187z"/>
<path d="M1030 1268 c-91 -257 -178 -347 -425 -441 -69 -26 -120 -51 -120 -58
0 -8 47 -31 110 -55 157 -58 191 -78 271 -158 77 -77 103 -122 154 -261 44
-120 48 -129 64 -115 8 5 30 57 51 115 84 236 173 326 414 415 85 32 120 49
119 60 -2 8 -50 31 -115 56 -142 52 -211 94 -279 167 -64 69 -83 104 -140 252
-24 65 -48 111 -56 113 -11 2 -25 -24 -48 -90z"/>
<path d="M4031 929 c-59 -155 -78 -196 -111 -240 -53 -70 -125 -122 -223 -159
-123 -46 -131 -50 -121 -60 5 -5 51 -25 102 -44 188 -72 270 -161 336 -363 28
-84 38 -80 76 27 38 107 67 157 125 215 61 60 110 89 228 130 42 15 77 33 77
39 0 6 -44 27 -97 46 -106 38 -190 93 -241 158 -35 43 -82 139 -103 210 -16
56 -36 72 -48 41z"/>
</g>
</svg>
